PathFileType	4	(X/Y/Z)	Walk2.trc
DataRate	CameraRate	NumFrames	NumMarkers	Units	OrigDataRate	OrigDataStartFrame	OrigNumFrames
200.000000	200.000000	4	61	mm	200.000000	773	1012
Frame#	Times		RCAR		LToe		LTB4		LTB1		RWRR		LMT1		RACR1		LFA1		LUA1		RFA1		LElbow		RFHD		LCAR		LASI		LWRU		LWRR		RLFC		STRN		LACR1		RTH3		RWRU		RToe		C7		RPSI		RMT1		RMT5		LPSI		RMFC		LFHD		RTB3		LTH3		LMFC		RTB2		RTB1		RCAL		LTH4		CLAV		RTB4		RTH2		RMMAL		LMT5		LTH1		RASI		LTH2		RLMAL		LBHD		LTB2		RBHD		LLFC		RUA1		RElbow		LTB3		RTH4		LMMAL		RTH1		LCAL		RBack		T10		LElbowM		LLMAL		RElbowM
			X1	Y1	Z1	X2	Y2	Z2	X3	Y3	Z3	X4	Y4	Z4	X5	Y5	Z5	X6	Y6	Z6	X7	Y7	Z7	X8	Y8	Z8	X9	Y9	Z9	X10	Y10	Z10	X11	Y11	Z11	X12	Y12	Z12	X13	Y13	Z13	X14	Y14	Z14	X15	Y15	Z15	X16	Y16	Z16	X17	Y17	Z17	X18	Y18	Z18	X19	Y19	Z19	X20	Y20	Z20	X21	Y21	Z21	X22	Y22	Z22	X23	Y23	Z23	X24	Y24	Z24	X25	Y25	Z25	X26	Y26	Z26	X27	Y27	Z27	X28	Y28	Z28	X29	Y29	Z29	X30	Y30	Z30	X31	Y31	Z31	X32	Y32	Z32	X33	Y33	Z33	X34	Y34	Z34	X35	Y35	Z35	X36	Y36	Z36	X37	Y37	Z37	X38	Y38	Z38	X39	Y39	Z39	X40	Y40	Z40	X41	Y41	Z41	X42	Y42	Z42	X43	Y43	Z43	X44	Y44	Z44	X45	Y45	Z45	X46	Y46	Z46	X47	Y47	Z47	X48	Y48	Z48	X49	Y49	Z49	X50	Y50	Z50	X51	Y51	Z51	X52	Y52	Z52	X53	Y53	Z53	X54	Y54	Z54	X55	Y55	Z55	X56	Y56	Z56	X57	Y57	Z57	X58	Y58	Z58	X59	Y59	Z59	X60	Y60	Z60	X61	Y61	Z61

773	3.865	94.724	809.64	388.86	-89.615	29.938	-25.555	-140.11	276.09	-23.277	-91.132	345.47	-27.157	112.12	851.66	328.94	-144.85	45.234	-13.659	94.435	1471.3	222.53	172.26	1029.6	-291.64	99.292	1321.5	-232.58	76.028	996.45	351.96	76.845	1151.2	-279.63	238.3	1676.4	119.69	232.27	874.12	-309.38	176.18	1007.5	-139.26	156.08	897.48	-302.8	234.15	910.77	-252.28	250.67	504.39	207.12	238.04	1281	25.728	94.855	1507.4	-152.37	190.12	626.51	212.36	39.624	854.67	379.57	551.83	67.62	120.66	-7.047	1530.2	41.546	-43.877	1038.2	75.287	502.71	69.248	105.43	462.26	37.972	189.83	-43.761	1050.3	-32.44	245.62	492.8	57.376	246.19	1686.7	15.08	363.73	206.33	112.71	22.96	624.26	-156.14	-47.567	493.25	6.4527	351.96	289	178.66	336.46	376.72	122.66	285.28	36.581	109.64	44.512	706.43	-172.97	163.93	1448.2	22.76	349.93	290.82	117.23	203.98	727.16	236.12	366.9	108.05	65.306	-186.14	32.511	-104.74	65.168	789.92	-190.22	176.31	1022.5	181.16	97.123	699.14	-152.32	337.21	72.567	154.82	82.002	1673.7	-18.443	-121.03	259.52	-81.068	67.332	1663.2	122.6	-49.868	491.82	-132.82	62.405	1290.9	290.9	8.2172	1133.6	326.99	-186.91	204.5	-19.784	151.63	701.11	219.77	-257.7	130.05	17.387	114.39	780.95	228.08	-354.63	112.02	-48.09	-66.732	1405.2	149.66	-30.848	1170.9	18.035	48.542	1119.8	-195.21	-281.42	111.61	-82.865	-10.919	1108.6	235.54
774	3.87	100.52	809.8	389.57	-89.757	29.918	-25.42	-135.46	276.99	-23.077	-85.439	345.63	-26.93	118	851.81	329.69	-144.71	45.197	-13.547	100.02	1471.7	223.66	176.63	1029.6	-290.38	104.85	1322.2	-231.47	81.905	996.61	352.66	81.963	1151.7	-278.28	244.1	1676.9	120.73	235.63	873.72	-308.32	182.2	1007.7	-138.2	159.58	897.59	-301.74	237.72	910.27	-251.16	256.13	505.25	208.16	243.92	1281.7	26.85	100.69	1508	-151.26	195.91	627.62	213.39	45.425	854.82	380.15	552.67	64.948	120.84	-1.3347	1530.7	42.628	-37.947	1038.9	75.544	503.54	67.334	105.68	462.58	36.423	190.52	-37.729	1050.4	-32.421	250.93	493.81	58.417	251.91	1687.1	16.117	365.93	206	113.36	30.282	623.73	-155.54	-39.798	492.72	6.685	355.12	288.73	179.42	340.39	376.66	123.52	285.64	37.138	110.05	51.517	706.08	-172.23	169.65	1448.8	23.931	352.97	290.62	117.98	209.73	728.3	236.67	368.03	107.85	65.845	-185.68	33.316	-104.4	71.905	789.59	-189.27	182.22	1023.5	182	104.11	698.92	-151.45	338.04	72.413	155.33	87.689	1674.2	-17.271	-116.67	260.25	-80.891	73.141	1663.8	123.79	-42.338	491.53	-132.28	68.193	1291.2	291.78	14.159	1133.8	327.62	-183.24	206.05	-19.68	157.41	702.19	220.7	-255.08	132.69	17.544	120.08	782.02	228.95	-352.24	116.7	-47.902	-61.001	1405.6	150.62	-25.071	1171.4	18.259	53.593	1120.6	-193.81	-279.22	114.76	-82.728	-4.7717	1108.8	236.13
775	3.875	106.37	810.07	390.26	-89.936	29.881	-25.285	-130.53	277.97	-22.901	-79.45	345.81	-26.743	123.95	852.08	330.45	-144.55	45.174	-13.424	105.61	1472.2	224.79	180.99	1029.7	-289.11	110.4	1322.9	-230.38	87.818	996.88	353.36	87.07	1152.4	-276.94	249.92	1677.4	121.78	238.94	873.44	-307.23	188.21	1008	-137.14	163.05	897.84	-300.69	241.23	909.89	-250.01	261.42	506.07	209.23	249.78	1282.4	27.95	106.55	1508.7	-150.14	201.63	628.75	214.5	51.289	855.07	380.72	553.4	62.526	121.03	4.3789	1531.2	43.709	-32.029	1039.7	75.783	504.26	65.631	105.95	462.82	35.063	191.27	-31.725	1050.5	-32.435	256.19	494.81	59.502	257.64	1687.7	17.154	368	205.71	114.03	37.786	623.22	-154.98	-31.686	492.14	6.8806	358.12	288.47	180.22	344.2	376.61	124.43	285.98	37.65	110.46	58.652	705.77	-171.5	175.37	1449.5	25.096	355.9	290.45	118.78	215.46	729.48	237.27	369.07	107.71	66.397	-185.2	34.204	-104.04	78.713	789.3	-188.31	188.08	1024.5	182.86	111.23	698.74	-150.6	338.79	72.277	155.84	93.387	1674.8	-16.096	-112.07	261.06	-80.747	78.966	1664.4	124.99	-34.542	491.25	-131.77	73.999	1291.5	292.65	20.108	1134.1	328.25	-179.32	207.71	-19.586	163.15	703.3	221.7	-252.18	135.48	17.734	125.71	783.13	229.88	-349.57	121.65	-47.613	-55.257	1406	151.58	-19.318	1172	18.49	58.616	1121.5	-192.41	-276.82	118.11	-82.533	1.3884	1109.2	236.71
776	3.88	112.29	810.46	390.93	-90.149	29.822	-25.149	-125.31	279.01	-22.75	-73.149	346.01	-26.6	129.95	852.47	331.19	-144.36	45.173	-13.29	111.23	1472.7	225.9	185.32	1030	-287.84	115.93	1323.8	-229.31	93.763	997.27	354.05	92.161	1153.2	-275.62	255.75	1678	122.82	242.21	873.26	-306.13	194.2	1008.4	-136.1	166.5	898.23	-299.66	244.69	909.62	-248.84	266.53	506.84	210.31	255.61	1283.2	29.021	112.41	1509.5	-149.01	207.27	629.88	215.66	57.217	855.43	381.28	554.03	60.341	121.2	10.089	1531.8	44.788	-26.124	1040.6	76.013	504.9	64.125	106.18	463.01	33.892	192.04	-25.751	1050.7	-32.466	261.34	495.78	60.617	263.38	1688.2	18.191	369.97	205.44	114.7	45.469	622.71	-154.47	-23.221	491.49	7.0418	360.98	288.21	181.03	347.88	376.56	125.37	286.28	38.114	110.87	65.913	705.48	-170.79	181.09	1450.2	26.253	358.7	290.29	119.58	221.14	730.68	237.92	370	107.61	66.937	-184.71	35.183	-103.65	85.588	789.04	-187.36	193.9	1025.7	183.75	118.48	698.61	-149.78	339.47	72.159	156.34	99.093	1675.5	-14.92	-107.23	261.94	-80.64	84.798	1665	126.18	-26.479	490.97	-131.28	79.821	1292	293.52	26.06	1134.5	328.89	-175.13	209.48	-19.499	168.82	704.43	222.75	-249	138.41	17.956	131.3	784.27	230.87	-346.6	126.88	-47.214	-49.503	1406.4	152.55	-13.586	1172.6	18.74	63.607	1122.5	-191.04	-274.21	121.64	-82.274	7.5538	1109.6	237.29
